<?xml version="1.0" encoding="UTF-8"?>
<svg width="8px" height="8px" viewBox="0 0 8 8" version="1.1" xmlns="http://www.w3.org/2000/svg" xmlns:xlink="http://www.w3.org/1999/xlink">
    <!-- Generator: Sketch 46.2 (44496) - http://www.bohemiancoding.com/sketch -->
    <title>peaple</title>
    <desc>Created with Sketch.</desc>
    <defs></defs>
    <g id="Symbols" stroke="none" stroke-width="1" fill="none" fill-rule="evenodd">
        <g id="peaple">
            <g>
                <rect id="Rectangle" x="0" y="0" width="8" height="8"></rect>
                <path d="M2.70709799,4.64015237 C1.98356903,4.20211791 1.5,3.40753076 1.5,2.5 C1.5,1.11928813 2.61928813,0 4,0 C5.38071187,0 6.5,1.11928813 6.5,2.5 C6.5,3.4080098 6.01592033,4.20295673 5.29175606,4.64084572 C7.46084985,5.17218073 7.35293201,7.02505487 7.35293201,7.02505487 C7.43415542,7.5635022 7.06211865,8 6.49707067,8 L1.50292933,8 C0.949026756,8 0.53863427,7.55672258 0.652081251,7.00640249 C0.652081251,7.00640249 0.540533625,5.16802172 2.70709799,4.64015237 Z M6.35462385,6.96690993 C6.35400501,6.97856003 6.35400501,6.97856003 6.35383255,6.98368522 C6.35875381,6.82124638 6.30562583,6.55195384 6.14471122,6.29846946 C5.83660581,5.81311946 5.20381667,5.5 4,5.5 C2.79501716,5.5 2.1627103,5.810875 1.85675453,6.29077943 C1.70016793,6.53639207 1.64734143,6.79713406 1.65093744,6.95724108 L1.65353193,7 L6.35613946,7 L6.35462385,6.96690993 Z M4,4 C4.82842712,4 5.5,3.32842712 5.5,2.5 C5.5,1.67157288 4.82842712,1 4,1 C3.17157288,1 2.5,1.67157288 2.5,2.5 C2.5,3.32842712 3.17157288,4 4,4 Z" id="Combined-Shape" fill-opacity="0.8" fill="#FFFFFF" fill-rule="nonzero"></path>
            </g>
        </g>
    </g>
</svg>