<?xml version="1.0" encoding="UTF-8"?>
<svg width="24px" height="24px" viewBox="0 0 24 24" version="1.1" xmlns="http://www.w3.org/2000/svg" xmlns:xlink="http://www.w3.org/1999/xlink">
    <!-- Generator: Sketch 46.2 (44496) - http://www.bohemiancoding.com/sketch -->
    <title>我的</title>
    <desc>Created with Sketch.</desc>
    <defs></defs>
    <g id="Symbols" stroke="none" stroke-width="1" fill="none" fill-rule="evenodd">
        <g id="我的">
            <g>
                <rect id="Rectangle-12" x="0" y="0" width="24" height="24"></rect>
                <rect id="Rectangle-12" x="2" y="2" width="20" height="20"></rect>
                <path d="M2.94695083,17.971 C1.69795083,19.737 3.21895083,22 5.62395083,22 L18.3769508,22 C20.7819508,22 22.3009508,19.738 21.0539508,17.971 C19.3719508,15.589 16.1529508,14 12.0019508,14 C7.85495083,14 4.63095083,15.593 2.94695083,17.971 Z M19.4869508,19.078 C19.5999508,19.238 19.6109508,19.357 19.5279508,19.518 C19.3829508,19.799 18.9699508,20.082 18.3769508,20.082 L5.62395083,20.082 C5.02995083,20.082 4.61695083,19.798 4.47195083,19.517 C4.38895083,19.357 4.39995083,19.239 4.51295083,19.079 C5.91395083,17.1 8.71395083,15.918 12.0019508,15.918 C15.2919508,15.918 18.0899508,17.099 19.4869508,19.078 Z" id="Fill-1" fill="#2B333B"></path>
                <circle id="Oval" stroke="#2B333B" stroke-width="2" cx="12" cy="9" r="6"></circle>
            </g>
        </g>
    </g>
</svg>