<?xml version="1.0" encoding="UTF-8"?>
<svg width="18px" height="18px" viewBox="0 0 18 18" version="1.1" xmlns="http://www.w3.org/2000/svg" xmlns:xlink="http://www.w3.org/1999/xlink">
    <!-- Generator: Sketch 46.2 (44496) - http://www.bohemiancoding.com/sketch -->
    <title>搜索</title>
    <desc>Created with Sketch.</desc>
    <defs></defs>
    <g id="Symbols" stroke="none" stroke-width="1" fill="none" fill-rule="evenodd">
        <g id="搜索" fill-rule="nonzero" fill="#2B333B">
            <path d="M13.4633314,12.0491292 L17.70751,16.2933078 C18.1001345,16.6859324 18.1045598,17.3180774 17.7113129,17.7113243 C17.3207886,18.1018486 16.6811788,18.0954038 16.2932964,17.7075214 L12.0491163,13.4633413 C10.7873185,14.4273662 9.21053214,15 7.5,15 C3.35786438,15 0,11.6421356 0,7.5 C0,3.35786438 3.35786438,0 7.5,0 C11.6421356,0 15,3.35786438 15,7.5 C15,9.210538 14.4273622,10.7873293 13.4633314,12.0491292 Z M7.5,13 C10.5375661,13 13,10.5375661 13,7.5 C13,4.46243388 10.5375661,2 7.5,2 C4.46243388,2 2,4.46243388 2,7.5 C2,10.5375661 4.46243388,13 7.5,13 Z" id="search"></path>
        </g>
    </g>
</svg>