<?xml version="1.0" encoding="UTF-8"?>
<svg width="24px" height="24px" viewBox="0 0 24 24" version="1.1" xmlns="http://www.w3.org/2000/svg" xmlns:xlink="http://www.w3.org/1999/xlink">
    <!-- Generator: Sketch 46.2 (44496) - http://www.bohemiancoding.com/sketch -->
    <title>首页-选中</title>
    <desc>Created with Sketch.</desc>
    <defs></defs>
    <g id="Symbols" stroke="none" stroke-width="1" fill="none" fill-rule="evenodd">
        <g id="首页-选中">
            <g>
                <rect id="Rectangle-12" x="0" y="0" width="24" height="24"></rect>
                <rect id="Rectangle-12" x="2" y="2" width="20" height="20"></rect>
                <path d="M1.97971267,11.6240462 C0.878804114,11.6240462 0.674735359,11.0504859 1.51860896,10.347382 L11.219416,2.26480347 C11.6441475,1.91092302 12.3345946,1.91254226 12.7572334,2.26480347 L22.4423904,10.3371931 C23.295091,11.0479025 23.0903405,11.6240462 21.9778399,11.6240462 L21,11.6240462 L21,19.9994117 C21,21.1043061 20.1073772,22 19.0049107,22 L4.99508929,22 C3.8932319,22 3,21.0973533 3,19.9994117 L3,11.6240462 L1.97971267,11.6240462 Z M6.64949156,15.0259614 C6.87137771,15.3847635 7.29497684,15.8605357 7.95435829,16.32029 C9.01552184,17.0601871 10.3638983,17.5 12,17.5 C13.6361017,17.5 14.9844782,17.0601871 16.0456417,16.32029 C16.7050232,15.8605357 17.1286223,15.3847635 17.3505084,15.0259614 C17.6409889,14.5562386 17.4956842,13.939972 17.0259614,13.6494916 C16.5562386,13.3590111 15.939972,13.5043158 15.6494916,13.9740386 C15.5621736,14.1152365 15.3180176,14.3894643 14.901746,14.67971 C14.1701544,15.1898129 13.2191839,15.5 12,15.5 C10.7808161,15.5 9.8298456,15.1898129 9.09825402,14.67971 C8.68198239,14.3894643 8.43782639,14.1152365 8.35050844,13.9740386 C8.06002798,13.5043158 7.44376144,13.3590111 6.9740386,13.6494916 C6.50431576,13.939972 6.3590111,14.5562386 6.64949156,15.0259614 Z" id="Combined-Shape" fill="#F01414"></path>
            </g>
        </g>
    </g>
</svg>